<svg xmlns="http://www.w3.org/2000/svg" viewBox="0 0 900 520" role="img" aria-labelledby="title desc">
<title id="title">Systems Build banner</title><desc id="desc">A warm futuristic dashboard, CRM pipeline, forms, and connected business workflow.</desc>
<defs>
<linearGradient id="bg" x1="0" y1="0" x2="1" y2="1"><stop offset="0" stop-color="#fff8ef"/><stop offset=".45" stop-color="#e8c59b"/><stop offset="1" stop-color="#3a241b"/></linearGradient>
<linearGradient id="gold" x1="0" y1="0" x2="1" y2="1"><stop offset="0" stop-color="#fff2bd"/><stop offset=".48" stop-color="#e4aa3a"/><stop offset="1" stop-color="#7b3f22"/></linearGradient>
<filter id="shadow" x="-20%" y="-20%" width="140%" height="140%"><feDropShadow dx="0" dy="18" stdDeviation="22" flood-color="#2a1d17" flood-opacity=".24"/></filter>
</defs>
<rect width="900" height="520" rx="46" fill="url(#bg)"/>
<g opacity=".23" stroke="#fff8ef" stroke-width="1"><path d="M0 72h900M0 152h900M0 232h900M0 312h900M0 392h900M0 472h900"/><path d="M78 0v520M158 0v520M238 0v520M318 0v520M398 0v520M478 0v520M558 0v520M638 0v520M718 0v520M798 0v520"/></g>
<g filter="url(#shadow)">
<rect x="92" y="86" width="716" height="348" rx="36" fill="#201712" opacity=".96"/>
<rect x="130" y="130" width="168" height="248" rx="24" fill="#fff8ef" opacity=".96"/>
<rect x="160" y="166" width="96" height="16" rx="8" fill="#8f5139"/>
<rect x="160" y="216" width="108" height="44" rx="14" fill="#f4e6d0" stroke="#e4aa3a"/>
<rect x="160" y="282" width="108" height="44" rx="14" fill="#f4e6d0" stroke="#d39a7d"/>
<rect x="336" y="130" width="196" height="248" rx="24" fill="#fff8ef" opacity=".94"/>
<rect x="366" y="166" width="108" height="16" rx="8" fill="#8f5139"/>
<rect x="366" y="218" width="50" height="102" rx="16" fill="url(#gold)" opacity=".9"/>
<rect x="436" y="194" width="50" height="126" rx="16" fill="#d39a7d" opacity=".9"/>
<rect x="574" y="130" width="196" height="248" rx="24" fill="#fff8ef" opacity=".94"/>
<rect x="604" y="166" width="108" height="16" rx="8" fill="#8f5139"/>
<path d="M626 288c22-62 53 18 82-54" stroke="#e4aa3a" stroke-width="10" stroke-linecap="round" fill="none"/>
<circle cx="626" cy="288" r="10" fill="#e4aa3a"/><circle cx="708" cy="234" r="10" fill="#e4aa3a"/>
</g>
<path d="M282 238h56m194 0h42" stroke="#e4aa3a" stroke-width="6" stroke-linecap="round" opacity=".85"/>
<circle cx="310" cy="238" r="12" fill="#e4aa3a"/><circle cx="554" cy="238" r="12" fill="#e4aa3a"/>
</svg>
