<svg xmlns="http://www.w3.org/2000/svg" viewBox="0 0 900 520" role="img" aria-labelledby="title desc">
<title id="title">Starter Website banner</title><desc id="desc">A warm futuristic landing page concept with a laptop, sections, and inquiry path.</desc>
<defs>
<linearGradient id="bg" x1="0" y1="0" x2="1" y2="1"><stop offset="0" stop-color="#fff8ef"/><stop offset=".48" stop-color="#f5ddbd"/><stop offset="1" stop-color="#b57a4b"/></linearGradient>
<linearGradient id="gold" x1="0" y1="0" x2="1" y2="1"><stop offset="0" stop-color="#fff2bd"/><stop offset=".42" stop-color="#e8b64b"/><stop offset="1" stop-color="#8f4b27"/></linearGradient>
<filter id="shadow" x="-20%" y="-20%" width="140%" height="140%"><feDropShadow dx="0" dy="18" stdDeviation="22" flood-color="#2a1d17" flood-opacity=".22"/></filter>
</defs>
<rect width="900" height="520" rx="46" fill="url(#bg)"/>
<g opacity=".22" stroke="#4a2e20" stroke-width="1"><path d="M0 84h900M0 164h900M0 244h900M0 324h900M0 404h900"/><path d="M95 0v520M235 0v520M375 0v520M515 0v520M655 0v520M795 0v520"/></g>
<circle cx="780" cy="95" r="78" fill="none" stroke="#e8b64b" stroke-width="3" opacity=".55"/><circle cx="780" cy="95" r="23" fill="#e8b64b" opacity=".88"/>
<g filter="url(#shadow)">
<rect x="138" y="110" width="624" height="350" rx="34" fill="#201712" opacity=".94"/>
<rect x="166" y="142" width="568" height="270" rx="22" fill="#fff8ef"/>
<rect x="196" y="178" width="206" height="34" rx="17" fill="url(#gold)"/>
<rect x="196" y="236" width="448" height="18" rx="9" fill="#4a2e20" opacity=".16"/>
<rect x="196" y="272" width="386" height="18" rx="9" fill="#4a2e20" opacity=".16"/>
<rect x="196" y="326" width="148" height="46" rx="23" fill="#25170f"/>
<rect x="396" y="316" width="112" height="80" rx="18" fill="#f4e6d0" stroke="#e8b64b"/>
<rect x="532" y="316" width="112" height="80" rx="18" fill="#f4e6d0" stroke="#d39a7d"/>
</g>
<path d="M118 452h664" stroke="#261812" stroke-width="18" stroke-linecap="round" opacity=".18"/>
<path d="M698 165c42 29 60 68 54 118" stroke="#e8b64b" stroke-width="5" fill="none" stroke-linecap="round" opacity=".78"/>
</svg>
